<?xml version="1.0" encoding="utf-8"?>
<!-- Generator: Adobe Illustrator 23.0.1, SVG Export Plug-In . SVG Version: 6.00 Build 0)  -->
<svg version="1.1" id="Layer_1" xmlns="http://www.w3.org/2000/svg" xmlns:xlink="http://www.w3.org/1999/xlink" x="0px" y="0px"
	 viewBox="0 0 134 133" style="enable-background:new 0 0 134 133;" xml:space="preserve">
<style type="text/css">
	.st0{fill:#FFFFFF;}
</style>
<path class="st0" d="M66.5,132C30.4,132,1,102.6,1,66.5S30.4,1,66.5,1S132,30.4,132,66.5S102.6,132,66.5,132z M66.5,9
	C34.8,9,9,34.8,9,66.5S34.8,124,66.5,124S124,98.2,124,66.5S98.2,9,66.5,9z"/>
<path class="st0" d="M41.5,29.5c0,0-10,2-13,15s11,29,18,36s28,26,42,25s17-17,17-17s-1-3-6-5s-10-7-14-5s-4,8-8,8s-12-3-19-10
	s-13-14-12-19s9-4,9-10s-5-16-7-18S41.5,29.5,41.5,29.5z"/>
</svg>
